<svg width="108" height="108" viewBox="0 0 108 108" fill="none" xmlns="http://www.w3.org/2000/svg">
<path d="M18 54C37.8821 54 54 70.1179 54 90C54 70.1179 70.1179 54 90 54C70.1179 54 54 37.8821 54 18C54 37.8821 37.8821 54 18 54Z" fill="#EDE3C9"/>
<path d="M54.0106 18C73.8878 18.0057 90 34.1215 90 54C70.1179 54 54 37.8821 54 18C54.0035 18 54.0071 18 54.0106 18Z" fill="#1E1E1E"/>
<path d="M18.0085 54C37.8867 54.0046 54 70.1208 54 90C34.1179 90 18 73.8821 18 54L18.0085 54Z" fill="#1E1E1E"/>
</svg>
